<svg width="245" height="35" viewBox="0 0 245 35" fill="none" xmlns="http://www.w3.org/2000/svg">
<path d="M24.8383 1.42276C24.9988 1.42276 25.1271 1.486 25.2234 1.61247C25.3518 1.70732 25.4159 1.83378 25.4159 1.99187V6.63957C25.4159 6.79765 25.3518 6.93993 25.2234 7.0664C25.1271 7.16125 24.9988 7.20867 24.8383 7.20867H16.2219C16.0615 7.20867 15.9812 7.28772 15.9812 7.4458V34.0515C15.9812 34.2096 15.9171 34.3519 15.7887 34.4783C15.6924 34.5732 15.5641 34.6206 15.4036 34.6206H9.77166C9.61121 34.6206 9.4668 34.5732 9.33843 34.4783C9.24216 34.3519 9.19402 34.2096 9.19402 34.0515V7.4458C9.19402 7.28772 9.1138 7.20867 8.95334 7.20867H0.577635C0.417181 7.20867 0.272772 7.16125 0.144409 7.0664C0.0481363 6.93993 0 6.79765 0 6.63957V1.99187C0 1.83378 0.0481363 1.70732 0.144409 1.61247C0.272772 1.486 0.417181 1.42276 0.577635 1.42276H24.8383Z" fill="#441F00"/>
<path d="M37.4417 9.8645C39.5276 9.8645 41.3889 10.2281 43.0255 10.9553C44.6622 11.6509 45.9298 12.6152 46.8283 13.8482C47.7589 15.0813 48.2243 16.4566 48.2243 17.9743V34.0515C48.2243 34.2096 48.1601 34.3519 48.0317 34.4783C47.9354 34.5732 47.8071 34.6206 47.6466 34.6206H42.0147C41.8542 34.6206 41.7098 34.5732 41.5815 34.4783C41.4852 34.3519 41.437 34.2096 41.437 34.0515V32.4865C41.437 32.3916 41.405 32.3284 41.3408 32.2967C41.2766 32.2651 41.2124 32.2967 41.1482 32.3916C39.8004 34.1305 37.6343 35 34.6498 35C32.1467 35 30.125 34.3993 28.5847 33.1978C27.0443 31.9964 26.2741 30.2258 26.2741 27.8862C26.2741 25.4517 27.1406 23.5705 28.8735 22.2425C30.6064 20.883 33.0774 20.2033 36.2865 20.2033H41.1964C41.3568 20.2033 41.437 20.1242 41.437 19.9661V18.9228C41.437 17.8794 41.1161 17.0732 40.4743 16.5041C39.8325 15.9033 38.8698 15.603 37.5861 15.603C36.5913 15.603 35.757 15.7769 35.0831 16.1247C34.4412 16.4724 34.0241 16.9625 33.8315 17.5948C33.7352 17.9426 33.5267 18.1007 33.2057 18.0691L27.3813 17.3103C26.9962 17.2471 26.8197 17.1048 26.8518 16.8835C26.9801 15.5556 27.5096 14.3541 28.4403 13.2791C29.403 12.2042 30.6545 11.3663 32.1949 10.7656C33.7673 10.1649 35.5163 9.8645 37.4417 9.8645ZM36.479 30.0203C37.8589 30.0203 39.0302 29.6567 39.993 28.9295C40.9557 28.2023 41.437 27.2696 41.437 26.1314V24.4241C41.437 24.266 41.3568 24.187 41.1964 24.187H37.7305C36.2865 24.187 35.1472 24.4557 34.3129 24.9932C33.5106 25.5307 33.1095 26.2895 33.1095 27.2696C33.1095 28.1233 33.4143 28.8031 34.0241 29.3089C34.6338 29.7832 35.4521 30.0203 36.479 30.0203Z" fill="#441F00"/>
<path d="M53.5828 34.6206C53.4223 34.6206 53.2779 34.5732 53.1496 34.4783C53.0533 34.3519 53.0052 34.2096 53.0052 34.0515V1.99187C53.0052 1.83378 53.0533 1.70732 53.1496 1.61247C53.2779 1.486 53.4223 1.42276 53.5828 1.42276H59.2147C59.3752 1.42276 59.5036 1.486 59.5998 1.61247C59.7282 1.70732 59.7924 1.83378 59.7924 1.99187V34.0515C59.7924 34.2096 59.7282 34.3519 59.5998 34.4783C59.5036 34.5732 59.3752 34.6206 59.2147 34.6206H53.5828Z" fill="#441F00"/>
<path d="M68.4155 7.49322C67.3244 7.49322 66.4099 7.14544 65.6718 6.44986C64.9658 5.72267 64.6128 4.82159 64.6128 3.74661C64.6128 2.64002 64.9658 1.73893 65.6718 1.04336C66.3778 0.347787 67.2924 0 68.4155 0C69.5387 0 70.4533 0.347787 71.1593 1.04336C71.8653 1.73893 72.2183 2.64002 72.2183 3.74661C72.2183 4.82159 71.8492 5.72267 71.1112 6.44986C70.4052 7.14544 69.5066 7.49322 68.4155 7.49322ZM65.5274 34.6206C65.3669 34.6206 65.2225 34.5732 65.0941 34.4783C64.9979 34.3519 64.9497 34.2096 64.9497 34.0515V10.7656C64.9497 10.6075 64.9979 10.481 65.0941 10.3862C65.2225 10.2597 65.3669 10.1965 65.5274 10.1965H71.1593C71.3198 10.1965 71.4481 10.2597 71.5444 10.3862C71.6727 10.481 71.7369 10.6075 71.7369 10.7656V34.0515C71.7369 34.2096 71.6727 34.3519 71.5444 34.4783C71.4481 34.5732 71.3198 34.6206 71.1593 34.6206H65.5274Z" fill="#441F00"/>
<path d="M91.2265 15.0339C91.2265 15.192 91.1623 15.3342 91.0339 15.4607C90.9377 15.5556 90.8093 15.603 90.6488 15.603H86.0278C85.8673 15.603 85.7871 15.682 85.7871 15.8401V25.8943C85.7871 26.9377 85.9957 27.7123 86.4128 28.2182C86.8621 28.724 87.5681 28.977 88.5308 28.977H90.1193C90.2798 28.977 90.4082 29.0402 90.5044 29.1667C90.6328 29.2615 90.697 29.388 90.697 29.5461V34.0515C90.697 34.3993 90.5044 34.6048 90.1193 34.668C88.7715 34.7313 87.8088 34.7629 87.2312 34.7629C84.5676 34.7629 82.578 34.336 81.2623 33.4824C79.9465 32.5971 79.2726 30.953 79.2405 28.5501V15.8401C79.2405 15.682 79.1603 15.603 78.9999 15.603H76.2561C76.0956 15.603 75.9512 15.5556 75.8229 15.4607C75.7266 15.3342 75.6785 15.192 75.6785 15.0339V10.813C75.6785 10.6549 75.7266 10.5285 75.8229 10.4336C75.9512 10.3071 76.0956 10.2439 76.2561 10.2439H78.9999C79.1603 10.2439 79.2405 10.1649 79.2405 10.0068V4.36314C79.2405 4.20506 79.2887 4.07859 79.385 3.98374C79.5133 3.85727 79.6577 3.79404 79.8182 3.79404H85.2094C85.3699 3.79404 85.4983 3.85727 85.5945 3.98374C85.7229 4.07859 85.7871 4.20506 85.7871 4.36314V10.0068C85.7871 10.1649 85.8673 10.2439 86.0278 10.2439H90.6488C90.8093 10.2439 90.9377 10.3071 91.0339 10.4336C91.1623 10.5285 91.2265 10.6549 91.2265 10.813V15.0339Z" fill="#441F00"/>
<path d="M105.18 9.8645C107.266 9.8645 109.128 10.2281 110.764 10.9553C112.401 11.6509 113.668 12.6152 114.567 13.8482C115.498 15.0813 115.963 16.4566 115.963 17.9743V34.0515C115.963 34.2096 115.899 34.3519 115.77 34.4783C115.674 34.5732 115.546 34.6206 115.385 34.6206H109.753C109.593 34.6206 109.448 34.5732 109.32 34.4783C109.224 34.3519 109.176 34.2096 109.176 34.0515V32.4865C109.176 32.3916 109.144 32.3284 109.079 32.2967C109.015 32.2651 108.951 32.2967 108.887 32.3916C107.539 34.1305 105.373 35 102.388 35C99.8854 35 97.8636 34.3993 96.3233 33.1978C94.7829 31.9964 94.0127 30.2258 94.0127 27.8862C94.0127 25.4517 94.8792 23.5705 96.6121 22.2425C98.345 20.883 100.816 20.2033 104.025 20.2033H108.935C109.095 20.2033 109.176 20.1242 109.176 19.9661V18.9228C109.176 17.8794 108.855 17.0732 108.213 16.5041C107.571 15.9033 106.608 15.603 105.325 15.603C104.33 15.603 103.496 15.7769 102.822 16.1247C102.18 16.4724 101.763 16.9625 101.57 17.5948C101.474 17.9426 101.265 18.1007 100.944 18.0691L95.1199 17.3103C94.7348 17.2471 94.5583 17.1048 94.5904 16.8835C94.7187 15.5556 95.2482 14.3541 96.1789 13.2791C97.1416 12.2042 98.3931 11.3663 99.9335 10.7656C101.506 10.1649 103.255 9.8645 105.18 9.8645ZM104.218 30.0203C105.598 30.0203 106.769 29.6567 107.732 28.9295C108.694 28.2023 109.176 27.2696 109.176 26.1314V24.4241C109.176 24.266 109.095 24.187 108.935 24.187H105.469C104.025 24.187 102.886 24.4557 102.051 24.9932C101.249 25.5307 100.848 26.2895 100.848 27.2696C100.848 28.1233 101.153 28.8031 101.763 29.3089C102.372 29.7832 103.191 30.0203 104.218 30.0203Z" fill="#441F00"/>
<path d="M139.767 34.6206C139.446 34.6206 139.237 34.4625 139.141 34.1463L129.225 2.08672L129.177 1.89702C129.177 1.58085 129.354 1.42276 129.707 1.42276H135.772C136.125 1.42276 136.349 1.58085 136.446 1.89702L142.848 25.0407C142.88 25.1355 142.928 25.1829 142.992 25.1829C143.056 25.1829 143.104 25.1355 143.137 25.0407L149.442 1.89702C149.539 1.58085 149.763 1.42276 150.116 1.42276H156.037C156.23 1.42276 156.374 1.486 156.47 1.61247C156.567 1.73893 156.583 1.89702 156.518 2.08672L146.458 34.1463C146.362 34.4625 146.153 34.6206 145.832 34.6206H139.767Z" fill="#441F00"/>
<path d="M163.983 7.49322C162.892 7.49322 161.977 7.14544 161.239 6.44986C160.533 5.72267 160.18 4.82159 160.18 3.74661C160.18 2.64002 160.533 1.73893 161.239 1.04336C161.945 0.347787 162.86 0 163.983 0C165.106 0 166.021 0.347787 166.727 1.04336C167.433 1.73893 167.786 2.64002 167.786 3.74661C167.786 4.82159 167.417 5.72267 166.679 6.44986C165.973 7.14544 165.074 7.49322 163.983 7.49322ZM161.095 34.6206C160.934 34.6206 160.79 34.5732 160.662 34.4783C160.565 34.3519 160.517 34.2096 160.517 34.0515V10.7656C160.517 10.6075 160.565 10.481 160.662 10.3862C160.79 10.2597 160.934 10.1965 161.095 10.1965H166.727C166.887 10.1965 167.015 10.2597 167.112 10.3862C167.24 10.481 167.304 10.6075 167.304 10.7656V34.0515C167.304 34.2096 167.24 34.3519 167.112 34.4783C167.015 34.5732 166.887 34.6206 166.727 34.6206H161.095Z" fill="#441F00"/>
<path d="M182.462 9.8645C184.548 9.8645 186.409 10.2281 188.045 10.9553C189.682 11.6509 190.95 12.6152 191.848 13.8482C192.779 15.0813 193.244 16.4566 193.244 17.9743V34.0515C193.244 34.2096 193.18 34.3519 193.052 34.4783C192.955 34.5732 192.827 34.6206 192.666 34.6206H187.035C186.874 34.6206 186.73 34.5732 186.601 34.4783C186.505 34.3519 186.457 34.2096 186.457 34.0515V32.4865C186.457 32.3916 186.425 32.3284 186.361 32.2967C186.296 32.2651 186.232 32.2967 186.168 32.3916C184.82 34.1305 182.654 35 179.67 35C177.167 35 175.145 34.3993 173.605 33.1978C172.064 31.9964 171.294 30.2258 171.294 27.8862C171.294 25.4517 172.16 23.5705 173.893 22.2425C175.626 20.883 178.097 20.2033 181.306 20.2033H186.216C186.377 20.2033 186.457 20.1242 186.457 19.9661V18.9228C186.457 17.8794 186.136 17.0732 185.494 16.5041C184.852 15.9033 183.89 15.603 182.606 15.603C181.611 15.603 180.777 15.7769 180.103 16.1247C179.461 16.4724 179.044 16.9625 178.851 17.5948C178.755 17.9426 178.547 18.1007 178.226 18.0691L172.401 17.3103C172.016 17.2471 171.84 17.1048 171.872 16.8835C172 15.5556 172.529 14.3541 173.46 13.2791C174.423 12.2042 175.674 11.3663 177.215 10.7656C178.787 10.1649 180.536 9.8645 182.462 9.8645ZM181.499 30.0203C182.879 30.0203 184.05 29.6567 185.013 28.9295C185.976 28.2023 186.457 27.2696 186.457 26.1314V24.4241C186.457 24.266 186.377 24.187 186.216 24.187H182.75C181.306 24.187 180.167 24.4557 179.333 24.9932C178.53 25.5307 178.129 26.2895 178.129 27.2696C178.129 28.1233 178.434 28.8031 179.044 29.3089C179.654 29.7832 180.472 30.0203 181.499 30.0203Z" fill="#441F00"/>
<path d="M210.926 9.8645C213.493 9.8645 215.563 10.6391 217.135 12.1883C218.708 13.7376 219.494 15.8401 219.494 18.4959V34.0515C219.494 34.2096 219.43 34.3519 219.301 34.4783C219.205 34.5732 219.077 34.6206 218.916 34.6206H213.284C213.124 34.6206 212.979 34.5732 212.851 34.4783C212.755 34.3519 212.707 34.2096 212.707 34.0515V19.8713C212.707 18.6066 212.338 17.579 211.599 16.7886C210.893 15.9982 209.947 15.603 208.759 15.603C207.572 15.603 206.609 15.9982 205.871 16.7886C205.165 17.579 204.812 18.6066 204.812 19.8713V34.0515C204.812 34.2096 204.748 34.3519 204.62 34.4783C204.523 34.5732 204.395 34.6206 204.235 34.6206H198.603C198.442 34.6206 198.298 34.5732 198.169 34.4783C198.073 34.3519 198.025 34.2096 198.025 34.0515V10.813C198.025 10.6549 198.073 10.5285 198.169 10.4336C198.298 10.3071 198.442 10.2439 198.603 10.2439H204.235C204.395 10.2439 204.523 10.3071 204.62 10.4336C204.748 10.5285 204.812 10.6549 204.812 10.813V12.4729C204.812 12.5678 204.844 12.631 204.909 12.6626C204.973 12.6942 205.021 12.6784 205.053 12.6152C206.369 10.7814 208.326 9.8645 210.926 9.8645Z" fill="#441F00"/>
<path d="M234.217 9.8645C236.303 9.8645 238.165 10.2281 239.801 10.9553C241.438 11.6509 242.706 12.6152 243.604 13.8482C244.535 15.0813 245 16.4566 245 17.9743V34.0515C245 34.2096 244.936 34.3519 244.807 34.4783C244.711 34.5732 244.583 34.6206 244.422 34.6206H238.79C238.63 34.6206 238.486 34.5732 238.357 34.4783C238.261 34.3519 238.213 34.2096 238.213 34.0515V32.4865C238.213 32.3916 238.181 32.3284 238.117 32.2967C238.052 32.2651 237.988 32.2967 237.924 32.3916C236.576 34.1305 234.41 35 231.426 35C228.922 35 226.901 34.3993 225.36 33.1978C223.82 31.9964 223.05 30.2258 223.05 27.8862C223.05 25.4517 223.916 23.5705 225.649 22.2425C227.382 20.883 229.853 20.2033 233.062 20.2033H237.972C238.133 20.2033 238.213 20.1242 238.213 19.9661V18.9228C238.213 17.8794 237.892 17.0732 237.25 16.5041C236.608 15.9033 235.646 15.603 234.362 15.603C233.367 15.603 232.533 15.7769 231.859 16.1247C231.217 16.4724 230.8 16.9625 230.607 17.5948C230.511 17.9426 230.302 18.1007 229.981 18.0691L224.157 17.3103C223.772 17.2471 223.595 17.1048 223.628 16.8835C223.756 15.5556 224.285 14.3541 225.216 13.2791C226.179 12.2042 227.43 11.3663 228.971 10.7656C230.543 10.1649 232.292 9.8645 234.217 9.8645ZM233.255 30.0203C234.635 30.0203 235.806 29.6567 236.769 28.9295C237.731 28.2023 238.213 27.2696 238.213 26.1314V24.4241C238.213 24.266 238.133 24.187 237.972 24.187H234.506C233.062 24.187 231.923 24.4557 231.089 24.9932C230.286 25.5307 229.885 26.2895 229.885 27.2696C229.885 28.1233 230.19 28.8031 230.8 29.3089C231.41 29.7832 232.228 30.0203 233.255 30.0203Z" fill="#441F00"/>
</svg>
