<svg width="30" height="30" viewBox="0 0 30 30" fill="none" xmlns="http://www.w3.org/2000/svg">
<path d="M17.5 12.0625V10.5625C18.1875 10.2708 18.8906 10.0521 19.6094 9.90625C20.3281 9.76042 21.0833 9.6875 21.875 9.6875C22.4167 9.6875 22.9479 9.72917 23.4688 9.8125C23.9896 9.89583 24.5 10 25 10.125V11.5C24.5 11.3125 23.9948 11.1719 23.4844 11.0781C22.974 10.9844 22.4375 10.9375 21.875 10.9375C21.0833 10.9375 20.3229 11.0365 19.5938 11.2344C18.8646 11.4323 18.1667 11.7083 17.5 12.0625ZM17.5 18.9375V17.4062C18.1875 17.1146 18.8906 16.901 19.6094 16.7656C20.3281 16.6302 21.0833 16.5625 21.875 16.5625C22.4167 16.5625 22.9479 16.6042 23.4688 16.6875C23.9896 16.7708 24.5 16.875 25 17V18.375C24.5 18.1875 23.9948 18.0469 23.4844 17.9531C22.974 17.8594 22.4375 17.8125 21.875 17.8125C21.0833 17.8125 20.3229 17.9062 19.5938 18.0938C18.8646 18.2813 18.1667 18.5625 17.5 18.9375ZM17.5 15.5V14C18.1875 13.7083 18.8906 13.4896 19.6094 13.3438C20.3281 13.1979 21.0833 13.125 21.875 13.125C22.4167 13.125 22.9479 13.1667 23.4688 13.25C23.9896 13.3333 24.5 13.4375 25 13.5625V14.9375C24.5 14.75 23.9948 14.6094 23.4844 14.5156C22.974 14.4219 22.4375 14.375 21.875 14.375C21.0833 14.375 20.3229 14.474 19.5938 14.6719C18.8646 14.8698 18.1667 15.1458 17.5 15.5ZM7.75 20.625C8.875 20.625 9.96354 20.7552 11.0156 21.0156C12.0677 21.276 13.1042 21.6667 14.125 22.1875V8.84375C13.1875 8.21875 12.1719 7.73438 11.0781 7.39062C9.98438 7.04687 8.875 6.875 7.75 6.875C6.95833 6.875 6.18229 6.97396 5.42188 7.17188C4.66146 7.36979 3.89583 7.61458 3.125 7.90625V21.4688C3.77083 21.1771 4.50521 20.9635 5.32812 20.8281C6.15104 20.6927 6.95833 20.625 7.75 20.625ZM16 22.1875C17.0417 21.6667 18.0625 21.276 19.0625 21.0156C20.0625 20.7552 21.125 20.625 22.25 20.625C23.0417 20.625 23.8594 20.6875 24.7031 20.8125C25.5469 20.9375 26.2708 21.1042 26.875 21.3125V7.90625C26.1667 7.55208 25.4167 7.29167 24.625 7.125C23.8333 6.95833 23.0417 6.875 22.25 6.875C21.125 6.875 20.0365 7.04687 18.9844 7.39062C17.9323 7.73438 16.9375 8.21875 16 8.84375V22.1875ZM15.0625 25C14 24.2083 12.8438 23.599 11.5938 23.1719C10.3438 22.7448 9.0625 22.5312 7.75 22.5312C6.66667 22.5312 5.49479 22.7448 4.23438 23.1719C2.97396 23.599 1.97917 24.0417 1.25 24.5V6.625C2.125 6.125 3.14583 5.72917 4.3125 5.4375C5.47917 5.14583 6.625 5 7.75 5C9.0625 5 10.3385 5.17708 11.5781 5.53125C12.8177 5.88542 13.9792 6.42708 15.0625 7.15625C16.125 6.42708 17.2656 5.88542 18.4844 5.53125C19.7031 5.17708 20.9583 5 22.25 5C23.375 5 24.5208 5.15104 25.6875 5.45313C26.8542 5.75521 27.875 6.14583 28.75 6.625V24.5C28.0417 24.0208 27.0521 23.5729 25.7812 23.1562C24.5104 22.7396 23.3333 22.5312 22.25 22.5312C20.9375 22.5312 19.6771 22.75 18.4688 23.1875C17.2604 23.625 16.125 24.2292 15.0625 25Z" fill="#FAA964"/>
</svg>
