<svg width="28" height="28" viewBox="0 0 28 28" fill="none" xmlns="http://www.w3.org/2000/svg">
<path d="M14 25.6667C12.3667 25.6667 10.8403 25.3604 9.42087 24.7479C8.00143 24.1354 6.76671 23.3042 5.71671 22.2542C4.66671 21.2042 3.84032 19.9646 3.23754 18.5354C2.63476 17.1063 2.33337 15.575 2.33337 13.9417C2.33337 12.3083 2.63476 10.7868 3.23754 9.37709C3.84032 7.96737 4.66671 6.73751 5.71671 5.68751C6.76671 4.63751 8.00143 3.81598 9.42087 3.22293C10.8403 2.62987 12.3667 2.33334 14 2.33334C15.6334 2.33334 17.1598 2.62987 18.5792 3.22293C19.9987 3.81598 21.2334 4.63751 22.2834 5.68751C23.3334 6.73751 24.1598 7.96737 24.7625 9.37709C25.3653 10.7868 25.6667 12.3083 25.6667 13.9417C25.6667 15.575 25.3653 17.1063 24.7625 18.5354C24.1598 19.9646 23.3334 21.2042 22.2834 22.2542C21.2334 23.3042 19.9987 24.1354 18.5792 24.7479C17.1598 25.3604 15.6334 25.6667 14 25.6667ZM14 23.975C14.6806 23.275 15.2493 22.4729 15.7063 21.5688C16.1632 20.6646 16.5375 19.5903 16.8292 18.3458H11.2C11.4723 19.5125 11.8368 20.5625 12.2938 21.4958C12.7507 22.4292 13.3195 23.2556 14 23.975ZM11.5209 23.625C11.0348 22.8861 10.6167 22.0889 10.2667 21.2333C9.91671 20.3778 9.62504 19.4153 9.39171 18.3458H5.01671C5.7556 19.7264 6.61115 20.8104 7.58337 21.5979C8.5556 22.3854 9.8681 23.0611 11.5209 23.625ZM16.5084 23.5958C17.9084 23.1486 19.1674 22.4778 20.2855 21.5833C21.4035 20.6889 22.3028 19.6097 22.9834 18.3458H18.6375C18.3848 19.3958 18.0882 20.3486 17.748 21.2042C17.4077 22.0597 16.9945 22.857 16.5084 23.5958ZM4.43337 16.5958H9.07087C9.01254 16.0708 8.97851 15.5993 8.96879 15.1813C8.95907 14.7632 8.95421 14.35 8.95421 13.9417C8.95421 13.4556 8.96393 13.0229 8.98337 12.6438C9.00282 12.2646 9.04171 11.8417 9.10004 11.375H4.43337C4.29726 11.8417 4.2049 12.2597 4.15629 12.6292C4.10768 12.9986 4.08337 13.4361 4.08337 13.9417C4.08337 14.4472 4.10768 14.8993 4.15629 15.2979C4.2049 15.6965 4.29726 16.1292 4.43337 16.5958ZM10.8792 16.5958H17.15C17.2278 15.9931 17.2764 15.5021 17.2959 15.1229C17.3153 14.7438 17.325 14.35 17.325 13.9417C17.325 13.5528 17.3153 13.1785 17.2959 12.8188C17.2764 12.459 17.2278 11.9778 17.15 11.375H10.8792C10.8014 11.9778 10.7528 12.459 10.7334 12.8188C10.7139 13.1785 10.7042 13.5528 10.7042 13.9417C10.7042 14.35 10.7139 14.7438 10.7334 15.1229C10.7528 15.5021 10.8014 15.9931 10.8792 16.5958ZM18.9 16.5958H23.5667C23.7028 16.1292 23.7952 15.6965 23.8438 15.2979C23.8924 14.8993 23.9167 14.4472 23.9167 13.9417C23.9167 13.4361 23.8924 12.9986 23.8438 12.6292C23.7952 12.2597 23.7028 11.8417 23.5667 11.375H18.9292C18.9875 12.0556 19.0264 12.5757 19.0459 12.9354C19.0653 13.2951 19.075 13.6306 19.075 13.9417C19.075 14.3695 19.0605 14.7729 19.0313 15.1521C19.0021 15.5313 18.9584 16.0125 18.9 16.5958ZM18.6084 9.62501H22.9834C22.3417 8.28334 21.4618 7.16529 20.3438 6.27084C19.2257 5.3764 17.9375 4.74445 16.4792 4.37501C16.9653 5.09445 17.3785 5.87223 17.7188 6.70834C18.0591 7.54446 18.3556 8.51668 18.6084 9.62501ZM11.2 9.62501H16.8584C16.6445 8.59446 16.2848 7.59793 15.7792 6.63543C15.2737 5.67293 14.6806 4.82223 14 4.08334C13.3778 4.60834 12.8528 5.29862 12.425 6.15418C11.9973 7.00973 11.5889 8.16668 11.2 9.62501ZM5.01671 9.62501H9.42087C9.63476 8.57501 9.90699 7.63682 10.2375 6.81043C10.5681 5.98404 10.9862 5.18195 11.4917 4.40418C10.0334 4.77362 8.75976 5.39584 7.67087 6.27084C6.58198 7.14584 5.69726 8.2639 5.01671 9.62501Z" fill="#FAA964"/>
</svg>
