<svg width="35" height="35" viewBox="0 0 35 35" fill="none" xmlns="http://www.w3.org/2000/svg">
<path d="M17.5 17.1354C18.2048 17.1354 18.8064 16.8863 19.3047 16.388C19.8029 15.8898 20.0521 15.2882 20.0521 14.5834C20.0521 13.8785 19.8029 13.2769 19.3047 12.7787C18.8064 12.2804 18.2048 12.0313 17.5 12.0313C16.7951 12.0313 16.1936 12.2804 15.6953 12.7787C15.197 13.2769 14.9479 13.8785 14.9479 14.5834C14.9479 15.2882 15.197 15.8898 15.6953 16.388C16.1936 16.8863 16.7951 17.1354 17.5 17.1354ZM17.5 29.2031C20.7326 26.2622 23.1206 23.5946 24.664 21.2005C26.2074 18.8064 26.9791 16.6979 26.9791 14.875C26.9791 12.007 26.0616 9.66148 24.2265 7.83856C22.3915 6.01565 20.1493 5.10419 17.5 5.10419C14.8507 5.10419 12.6085 6.01565 10.7734 7.83856C8.93835 9.66148 8.02081 12.007 8.02081 14.875C8.02081 16.6979 8.81074 18.8064 10.3906 21.2005C11.9705 23.5946 14.3403 26.2622 17.5 29.2031ZM17.5 32.0834C13.5868 28.7535 10.664 25.6606 8.73175 22.8047C6.79946 19.9488 5.83331 17.3056 5.83331 14.875C5.83331 11.2292 7.00606 8.32467 9.35154 6.16148C11.697 3.99828 14.4132 2.91669 17.5 2.91669C20.5868 2.91669 23.3029 3.99828 25.6484 6.16148C27.9939 8.32467 29.1666 11.2292 29.1666 14.875C29.1666 17.3056 28.2005 19.9488 26.2682 22.8047C24.3359 25.6606 21.4132 28.7535 17.5 32.0834Z" fill="#441F00"/>
</svg>
